<svg xmlns="http://www.w3.org/2000/svg" width="19" height="15" viewBox="0 0 19 15" fill="none">
  <path d="M9.35315 4.56699C9.52126 4.93749 10.4189 5.63568 11.304 5.63568C12.3215 5.63568 13.1315 4.97738 13.4401 4.58752C13.7265 5.00631 14.5911 5.61691 15.6584 5.61691C16.7255 5.61691 17.8052 4.96506 17.8052 4.061C17.8052 3.83615 17.7574 3.67114 17.6725 3.45079L16.8374 1.0004H9.80266" stroke="#231F20" stroke-miterlimit="10" stroke-linecap="round" stroke-linejoin="round"/>
  <path d="M9.80266 1H9.25922H1.76971L0.936199 3.45117C0.851538 3.67151 0.805176 3.82362 0.805176 4.04866C0.805176 4.95272 1.88803 5.61317 2.95517 5.61317C4.02251 5.61317 4.89311 5.00942 5.17955 4.59082C5.48816 4.98068 6.31038 5.64758 7.32813 5.64758C8.21304 5.64758 9.18544 4.93649 9.35315 4.56599" stroke="#231F20" stroke-miterlimit="10" stroke-linecap="round" stroke-linejoin="round"/>
  <path d="M16.731 5.73728V12.8433C16.731 13.4518 16.147 14 15.5195 14H3.21481C2.58751 14 1.96545 13.4518 1.96545 12.8433V5.51694" stroke="#231F20" stroke-miterlimit="10" stroke-linecap="round" stroke-linejoin="round"/>
  <path d="M11.5065 13.4491V9.02726C11.5065 8.49467 11.9788 8.05084 12.5276 8.05084H13.6921C14.2416 8.05084 14.6867 8.49486 14.6867 9.02726V13.4491" stroke="#231F20" stroke-miterlimit="10" stroke-linecap="round" stroke-linejoin="round"/>
  <path d="M9.00741 11.5762C9.00741 11.8194 8.80382 12.0169 8.55306 12.0169H4.46412C4.21315 12.0169 4.00977 11.8194 4.00977 11.5762V8.49152C4.00977 8.2481 4.21315 8.05083 4.46412 8.05083H8.55326C8.80402 8.05083 9.00761 8.2481 9.00761 8.49152V11.5762H9.00741Z" stroke="#231F20" stroke-miterlimit="10" stroke-linecap="round" stroke-linejoin="round"/>
</svg>