<svg width="17" height="17" viewBox="0 0 17 17" fill="none" xmlns="http://www.w3.org/2000/svg">
<path d="M13.7302 8.50412C13.7302 8.14428 13.4422 7.85278 13.0872 7.85278H9.15255V3.92391V3.92379C9.15255 3.56274 8.85959 3.2699 8.49879 3.2699C8.13774 3.2699 7.84478 3.56274 7.84478 3.92379V8.50158C7.84478 8.86274 8.13774 9.15558 8.49879 9.15558H13.0876C13.4422 9.15558 13.7302 8.86396 13.7302 8.50412ZM15.6938 8.5C15.6938 12.4737 12.473 15.695 8.50012 15.695C4.52703 15.695 1.30643 12.4737 1.30643 8.5C1.30643 4.5263 4.52703 1.30498 8.50012 1.30498C12.473 1.30498 15.6938 4.5263 15.6938 8.5ZM17 8.5C17 3.80554 13.1945 0 8.50012 0C3.80554 0 0 3.80554 0 8.5C0 13.1945 3.80554 17 8.50012 17C13.1945 17 17 13.1945 17 8.5Z" fill="#231F20"/>
</svg>
